<svg xmlns="http://www.w3.org/2000/svg" viewBox="0 0 6788 4808" preserveAspectRatio="none" role="img" aria-label="南瓜堡垒真实地形与饰品分布"><rect width="100%" height="100%" fill="#484532"/><polygon points="407,337 1222,337 1222,914 407,914" fill="#8b773b"/><polygon points="5498,3943 6313,3943 6313,4520 5498,4520" fill="#8b773b"/><polygon points="5634,337 6449,337 6449,914 5634,914" fill="#8b773b"/><polygon points="272,3894 1086,3894 1086,4471 272,4471" fill="#8b773b"/><polyline points="3394,337 3394,4471" fill="none" stroke="#b98a53" stroke-width="320" stroke-linecap="round" stroke-linejoin="round"/><polyline points="475,2404 6313,2404" fill="none" stroke="#b98a53" stroke-width="290" stroke-linecap="round" stroke-linejoin="round"/><polyline points="1086,962 1086,3943 5770,3943 5770,962 1086,962" fill="none" stroke="#b98a53" stroke-width="250" stroke-linecap="round" stroke-linejoin="round"/><polyline points="5159,1298 5159,962" fill="none" stroke="#b98a53" stroke-width="225" stroke-linecap="round" stroke-linejoin="round"/><polyline points="3190,817 3190,962" fill="none" stroke="#b98a53" stroke-width="225" stroke-linecap="round" stroke-linejoin="round"/><polyline points="1493,1442 1086,1442" fill="none" stroke="#b98a53" stroke-width="225" stroke-linecap="round" stroke-linejoin="round"/><polyline points="1833,3654 1833,3943" fill="none" stroke="#b98a53" stroke-width="225" stroke-linecap="round" stroke-linejoin="round"/><polyline points="5702,3366 5770,3366" fill="none" stroke="#b98a53" stroke-width="225" stroke-linecap="round" stroke-linejoin="round"/><rect x="2172.16" y="1552.9840000000002" width="985.8400000000001" height="67.312" fill="#967b50"/><rect x="3630" y="1552.9840000000002" width="985.8400000000001" height="67.312" fill="#967b50"/><rect x="2172.16" y="3187.704" width="985.8400000000001" height="67.312" fill="#967b50"/><rect x="3630" y="3187.704" width="985.8400000000001" height="67.312" fill="#967b50"/><rect x="2134.826" y="1586.6399999999999" width="74.66799999999999" height="596.3600000000001" fill="#967b50"/><rect x="2134.826" y="2625" width="74.66799999999999" height="596.3600000000001" fill="#967b50"/><rect x="4578.506" y="1586.6399999999999" width="74.66799999999999" height="596.3600000000001" fill="#967b50"/><rect x="4578.506" y="2625" width="74.66799999999999" height="596.3600000000001" fill="#967b50"/><circle cx="1289.72" cy="649.68" r="105" fill="#607143" stroke="#d7e1c022" stroke-width="7"/><circle cx="5498.280000000001" cy="649.68" r="105" fill="#607143" stroke="#d7e1c022" stroke-width="7"/><circle cx="1424.72" cy="3612.5731409782015" r="105" fill="#607143" stroke="#d7e1c022" stroke-width="7"/><circle cx="5363.280000000001" cy="3612.5731409782015" r="105" fill="#607143" stroke="#d7e1c022" stroke-width="7"/><circle cx="1860.390854637602" cy="1766.64" r="105" fill="#607143" stroke="#d7e1c022" stroke-width="7"/><circle cx="4975.84" cy="3221.36" r="105" fill="#607143" stroke="#d7e1c022" stroke-width="7"/><circle cx="535.6991128123503" cy="453.4597741866745" r="43.161480360198766" fill="#bb914a" stroke="#d7e1c022" stroke-width="7"/><circle cx="808.8881948627969" cy="461.2581131878458" r="36.344418766442686" fill="#bb914a" stroke="#d7e1c022" stroke-width="7"/><circle cx="529.8178447261749" cy="778.3351542377118" r="34.75493310112506" fill="#bb914a" stroke="#d7e1c022" stroke-width="7"/><circle cx="834.6329646372087" cy="808.8860108929147" r="35.977516948245466" fill="#bb914a" stroke="#d7e1c022" stroke-width="7"/><circle cx="6202.5232625704175" cy="4037.3218595708718" r="36.92530795792118" fill="#bb914a" stroke="#d7e1c022" stroke-width="7"/><circle cx="5609.524846337417" cy="4420.280289915088" r="38.01075399713591" fill="#bb914a" stroke="#d7e1c022" stroke-width="7"/><circle cx="5901.14595259641" cy="4410.262067895409" r="39.030397849623114" fill="#bb914a" stroke="#d7e1c022" stroke-width="7"/><circle cx="6202.103160510945" cy="4416.945303922523" r="39.86537593277171" fill="#bb914a" stroke="#d7e1c022" stroke-width="7"/><circle cx="5767.53742706745" cy="441.73412912855673" r="43.069897478912026" fill="#bb914a" stroke="#d7e1c022" stroke-width="7"/><circle cx="6059.80442716312" cy="439.8730620662906" r="36.12771426187828" fill="#bb914a" stroke="#d7e1c022" stroke-width="7"/><circle cx="6045.955392616567" cy="797.6424556932152" r="42.292979856487364" fill="#bb914a" stroke="#d7e1c022" stroke-width="7"/><circle cx="6337.572446489306" cy="818.715170147322" r="41.9138243640773" fill="#bb914a" stroke="#d7e1c022" stroke-width="7"/><circle cx="411.68519370431176" cy="4016.560786075309" r="34.396907904651016" fill="#bb914a" stroke="#d7e1c022" stroke-width="7"/><circle cx="697.8163115925576" cy="3988.846729760058" r="39.14124638168141" fill="#bb914a" stroke="#d7e1c022" stroke-width="7"/><circle cx="403.60322009340115" cy="4348.403787195405" r="40.30664695985615" fill="#bb914a" stroke="#d7e1c022" stroke-width="7"/><circle cx="700.035440343162" cy="4369.367174486859" r="41.78284328058362" fill="#bb914a" stroke="#d7e1c022" stroke-width="7"/><circle cx="4683.274606295285" cy="492.9020385267771" r="33.034134490415454" fill="#447b48" stroke="#d7e1c022" stroke-width="7"/><circle cx="2555.6962290617917" cy="2124.133916250244" r="34.57375934137963" fill="#447b48" stroke="#d7e1c022" stroke-width="7"/><circle cx="6186.254774660245" cy="1346.2920672975295" r="35.83116642059758" fill="#447b48" stroke="#d7e1c022" stroke-width="7"/><circle cx="1542.744622641122" cy="2696.9875915485995" r="34.92895104852505" fill="#447b48" stroke="#d7e1c022" stroke-width="7"/><rect x="4502.147882521805" y="704.7339514368214" width="58.19256289303303" height="58.19256289303303" fill="#af8654"/><circle cx="1433.6751511886437" cy="1879.1392576402425" r="35.79466537828557" fill="#447b48" stroke="#d7e1c022" stroke-width="7"/><circle cx="4119.599570356608" cy="1948.2812122770958" r="50.44928815262392" fill="#899285" stroke="#d7e1c022" stroke-width="7"/><circle cx="5173.379199428512" cy="1698.2205261967702" r="33.72439689026214" fill="#447b48" stroke="#d7e1c022" stroke-width="7"/><circle cx="3792.8338481699498" cy="3654.255129280035" r="38.664006719365716" fill="#447b48" stroke="#d7e1c022" stroke-width="7"/><rect x="3030.5582493366023" y="4373.677743008174" width="54.7317286003381" height="54.7317286003381" fill="#af8654"/><circle cx="6308.7010513728865" cy="550.0857861956767" r="43.09428037935868" fill="#9a7954" stroke="#d7e1c022" stroke-width="7"/><circle cx="5042.892107910319" cy="643.2871591658518" r="32.52123296470381" fill="#447b48" stroke="#d7e1c022" stroke-width="7"/><circle cx="2592.3768448100054" cy="3698.00190145338" r="38.08955540321767" fill="#447b48" stroke="#d7e1c022" stroke-width="7"/><circle cx="6111.504182303334" cy="3327.4155143385383" r="31.039395484840497" fill="#447b48" stroke="#d7e1c022" stroke-width="7"/><circle cx="1751.681920900829" cy="3184.2655988357033" r="43.205254716333" fill="#899285" stroke="#d7e1c022" stroke-width="7"/><circle cx="6250.376726403451" cy="1765.1046793771163" r="35.182739422889426" fill="#447b48" stroke="#d7e1c022" stroke-width="7"/><circle cx="4932.960288076941" cy="1549.2649792733976" r="35.36278652306646" fill="#447b48" stroke="#d7e1c022" stroke-width="7"/><circle cx="5092.963869250799" cy="393.83870076112447" r="40.58937321952544" fill="#447b48" stroke="#d7e1c022" stroke-width="7"/><circle cx="2731.382003575228" cy="4439.752547591832" r="36.39563396340236" fill="#447b48" stroke="#d7e1c022" stroke-width="7"/><rect x="1999.8147346731926" y="3484.8195194713776" width="58.93279377929866" height="58.93279377929866" fill="#af8654"/><circle cx="2844.519768871497" cy="593.9331996540167" r="32.8590392768383" fill="#899285" stroke="#d7e1c022" stroke-width="7"/><circle cx="1122.2808218412194" cy="4348.29160909541" r="34.067272094776854" fill="#447b48" stroke="#d7e1c022" stroke-width="7"/><circle cx="3122.223742024414" cy="344.2064438959025" r="36.20966393640265" fill="#447b48" stroke="#d7e1c022" stroke-width="7"/><circle cx="3030.9813682723698" cy="2874.7319091186305" r="39.49630188685842" fill="#447b48" stroke="#d7e1c022" stroke-width="7"/><circle cx="2980.498469118159" cy="1934.2149592483975" r="32.8032585196197" fill="#9a7954" stroke="#d7e1c022" stroke-width="7"/><circle cx="637.6336696083936" cy="1656.6117541522533" r="54.73717179778032" fill="#899285" stroke="#d7e1c022" stroke-width="7"/><circle cx="1413.5772931965068" cy="4317.907046306487" r="31.196062359493226" fill="#447b48" stroke="#d7e1c022" stroke-width="7"/><circle cx="5191.053245908161" cy="4322.60126871992" r="31.12753315945156" fill="#447b48" stroke="#d7e1c022" stroke-width="7"/><circle cx="4127.857246992645" cy="2731.8142255678217" r="36.643453327938914" fill="#447b48" stroke="#d7e1c022" stroke-width="7"/><circle cx="6168.994383816244" cy="2880.3829151788354" r="41.72954861144535" fill="#447b48" stroke="#d7e1c022" stroke-width="7"/><circle cx="4082.01959002547" cy="1247.423353760373" r="39.56998055474833" fill="#447b48" stroke="#d7e1c022" stroke-width="7"/><circle cx="2051.625751768602" cy="1227.6583425168321" r="39.82953629386611" fill="#899285" stroke="#d7e1c022" stroke-width="7"/><circle cx="753.2284394683503" cy="1928.3339788752235" r="37.626716719940305" fill="#9a7954" stroke="#d7e1c022" stroke-width="7"/><circle cx="2304.8047328243497" cy="4362.294303507135" r="32.45188944390975" fill="#447b48" stroke="#d7e1c022" stroke-width="7"/><circle cx="3778.97153370034" cy="1977.0418959411047" r="34.767994159366935" fill="#9a7954" stroke="#d7e1c022" stroke-width="7"/><circle cx="1330.2438453927916" cy="2972.116483019553" r="31.700872369343415" fill="#447b48" stroke="#d7e1c022" stroke-width="7"/><circle cx="5486.333738622982" cy="2970.366239871252" r="37.771892820484936" fill="#899285" stroke="#d7e1c022" stroke-width="7"/><circle cx="3046.6665464265366" cy="1306.6262706366183" r="42.24565560440533" fill="#447b48" stroke="#d7e1c022" stroke-width="7"/><circle cx="2434.7330352624135" cy="1311.5628554848395" r="32.76517090527341" fill="#447b48" stroke="#d7e1c022" stroke-width="7"/><circle cx="2562.772211694708" cy="407.1878056766465" r="35.87651020591147" fill="#447b48" stroke="#d7e1c022" stroke-width="7"/><circle cx="4156.832814257574" cy="364.0949746970274" r="41.326919972896576" fill="#447b48" stroke="#d7e1c022" stroke-width="7"/><circle cx="3694.6870159416744" cy="451.4281917997449" r="35.42880370444618" fill="#447b48" stroke="#d7e1c022" stroke-width="7"/><circle cx="1318.597195926197" cy="3295.584540190455" r="32.89742940245196" fill="#447b48" stroke="#d7e1c022" stroke-width="7"/><circle cx="533.3262124224286" cy="1037.0593987783416" r="39.7167574504856" fill="#447b48" stroke="#d7e1c022" stroke-width="7"/><circle cx="1675.0015418240614" cy="2164.0581777124294" r="35.17440491262823" fill="#447b48" stroke="#d7e1c022" stroke-width="7"/><circle cx="4230.829354114803" cy="3692.9095634216073" r="39.95111797447316" fill="#447b48" stroke="#d7e1c022" stroke-width="7"/><rect x="1603.5978058097883" y="4432.122567364853" width="75.71726283803582" height="75.71726283803582" fill="#af8654"/><circle cx="5472.116930299802" cy="2699.4847794611383" r="39.80856918008067" fill="#447b48" stroke="#d7e1c022" stroke-width="7"/><circle cx="5527.748038218003" cy="1294.8713129551152" r="35.30595013871789" fill="#447b48" stroke="#d7e1c022" stroke-width="7"/><circle cx="2551.8959665042257" cy="1862.0641775039583" r="35.84715046151541" fill="#447b48" stroke="#d7e1c022" stroke-width="7"/><circle cx="4721.888972574622" cy="1183.1851495706849" r="41.25222014496103" fill="#447b48" stroke="#d7e1c022" stroke-width="7"/><rect x="791.1609571642335" y="1343.5571616700292" width="61.61055359058082" height="61.61055359058082" fill="#af8654"/><circle cx="2312.0967797430417" cy="637.4382031934895" r="43.28696081228554" fill="#447b48" stroke="#d7e1c022" stroke-width="7"/><circle cx="495.07922308658254" cy="1292.217543925196" r="31.62068100902252" fill="#9a7954" stroke="#d7e1c022" stroke-width="7"/><circle cx="600.2621747783945" cy="2849.834459351506" r="42.077473463024944" fill="#447b48" stroke="#d7e1c022" stroke-width="7"/><circle cx="1928.4594061191658" cy="330.0242014225945" r="39.879234437132254" fill="#447b48" stroke="#d7e1c022" stroke-width="7"/><circle cx="2853.2510576567615" cy="3479.4877548965255" r="34.02191342972219" fill="#447b48" stroke="#d7e1c022" stroke-width="7"/><circle cx="647.7396441501845" cy="3506.993485155851" r="39.097755833296105" fill="#447b48" stroke="#d7e1c022" stroke-width="7"/><circle cx="1068.1404586105793" cy="339.98179745448755" r="31.84873163001612" fill="#447b48" stroke="#d7e1c022" stroke-width="7"/><circle cx="3778.9963616750297" cy="1295.3262650850788" r="34.92605980229564" fill="#447b48" stroke="#d7e1c022" stroke-width="7"/><circle cx="458.68014484027407" cy="2158.168987742681" r="37.483247119002044" fill="#447b48" stroke="#d7e1c022" stroke-width="7"/><circle cx="5389.557209171849" cy="2123.0839845679698" r="42.23727551358752" fill="#447b48" stroke="#d7e1c022" stroke-width="7"/><circle cx="6362.469163775705" cy="2145.7760617136023" r="41.4397098547779" fill="#447b48" stroke="#d7e1c022" stroke-width="7"/><circle cx="2683.0374188401456" cy="4165.2785298610115" r="36.21540902671404" fill="#447b48" stroke="#d7e1c022" stroke-width="7"/><circle cx="5007.60408680616" cy="2032.303059708569" r="33.62904514744878" fill="#447b48" stroke="#d7e1c022" stroke-width="7"/><circle cx="5015.096628306256" cy="3617.611757369191" r="40.99674133094959" fill="#447b48" stroke="#d7e1c022" stroke-width="7"/><circle cx="4767.6295316383985" cy="3725.613925065827" r="34.673873115796596" fill="#447b48" stroke="#d7e1c022" stroke-width="7"/><circle cx="2558.469802610567" cy="2913.2120497389515" r="55.863404808798805" fill="#899285" stroke="#d7e1c022" stroke-width="7"/><circle cx="4240.023856022786" cy="699.1776134184935" r="41.60355442762375" fill="#447b48" stroke="#d7e1c022" stroke-width="7"/><circle cx="5400.392086126219" cy="3244.5935253504667" r="34.49610041244887" fill="#447b48" stroke="#d7e1c022" stroke-width="7"/><circle cx="4323.025189049319" cy="4161.45892040534" r="39.061690595466644" fill="#447b48" stroke="#d7e1c022" stroke-width="7"/><circle cx="3027.6211759749335" cy="3680.9545396649464" r="40.287095121340826" fill="#899285" stroke="#d7e1c022" stroke-width="7"/><circle cx="4455.006946868208" cy="4427.0417667066495" r="32.01095958985388" fill="#447b48" stroke="#d7e1c022" stroke-width="7"/><circle cx="4857.277789343754" cy="269.6599364835769" r="40.4522707068827" fill="#447b48" stroke="#d7e1c022" stroke-width="7"/><circle cx="1732.68365763139" cy="1190.1719904991053" r="38.58860541274771" fill="#9a7954" stroke="#d7e1c022" stroke-width="7"/><circle cx="4451.08078899487" cy="1224.7677714597062" r="42.91613648761995" fill="#9a7954" stroke="#d7e1c022" stroke-width="7"/><circle cx="1698.7375920054133" cy="1467.1730824614503" r="38.77878051623702" fill="#9a7954" stroke="#d7e1c022" stroke-width="7"/><circle cx="618.587570535699" cy="3171.8974520391976" r="36.08780858456157" fill="#447b48" stroke="#d7e1c022" stroke-width="7"/><circle cx="6312.953779188768" cy="3656.7619036899323" r="40.021007750649005" fill="#447b48" stroke="#d7e1c022" stroke-width="7"/><circle cx="2291.367758653341" cy="3503.263082332276" r="38.047699082875624" fill="#447b48" stroke="#d7e1c022" stroke-width="7"/><circle cx="3653.652017075848" cy="4293.119964801464" r="32.89187179505825" fill="#447b48" stroke="#d7e1c022" stroke-width="7"/><circle cx="3674.8866055540834" cy="2692.389390529469" r="48.46596874925308" fill="#899285" stroke="#d7e1c022" stroke-width="7"/><circle cx="5053.811208117791" cy="2644.056067192909" r="38.68156466213986" fill="#447b48" stroke="#d7e1c022" stroke-width="7"/><circle cx="5330.417316671452" cy="308.7622190629318" r="31.437257155077532" fill="#447b48" stroke="#d7e1c022" stroke-width="7"/><circle cx="1642.6037285009213" cy="642.6805447022804" r="32.96897462848574" fill="#9a7954" stroke="#d7e1c022" stroke-width="7"/><circle cx="384.5990427382756" cy="1829.5446463583407" r="39.782646062551066" fill="#9a7954" stroke="#d7e1c022" stroke-width="7"/><circle cx="1385.2387039318307" cy="276.96594241609796" r="39.75500182574615" fill="#9a7954" stroke="#d7e1c022" stroke-width="7"/><circle cx="3929.9339230022115" cy="565.3631589626893" r="39.32333802455105" fill="#447b48" stroke="#d7e1c022" stroke-width="7"/><circle cx="1905.9675692877734" cy="4492.512821157817" r="37.65518417023122" fill="#9a7954" stroke="#d7e1c022" stroke-width="7"/><circle cx="4852.312374451096" cy="4172.339175461158" r="42.77020735270344" fill="#447b48" stroke="#d7e1c022" stroke-width="7"/><circle cx="3739.39086112693" cy="4538.927283804399" r="33.164512819144875" fill="#447b48" stroke="#d7e1c022" stroke-width="7"/><circle cx="1989.1762512790692" cy="4229.780951547437" r="31.638764476636425" fill="#447b48" stroke="#d7e1c022" stroke-width="7"/><circle cx="6412.367721473817" cy="3087.396406271179" r="37.82309734728187" fill="#447b48" stroke="#d7e1c022" stroke-width="7"/><circle cx="4124.944252219955" cy="4451.117619177774" r="34.74375242530368" fill="#9a7954" stroke="#d7e1c022" stroke-width="7"/><circle cx="1319.8621102734655" cy="1213.7757084734553" r="32.81280952738598" fill="#447b48" stroke="#d7e1c022" stroke-width="7"/><circle cx="6011.703198744944" cy="1162.740634800978" r="32.6130159155" fill="#447b48" stroke="#d7e1c022" stroke-width="7"/><circle cx="4950.231713732649" cy="4466.951449160743" r="36.88789450097829" fill="#9a7954" stroke="#d7e1c022" stroke-width="7"/><circle cx="5818.919929432655" cy="4153.990918409154" r="39.570791739737615" fill="#9a7954" stroke="#d7e1c022" stroke-width="7"/><circle cx="864.164244308509" cy="3681.222241258677" r="37.033405392896384" fill="#447b48" stroke="#d7e1c022" stroke-width="7"/><circle cx="5994.828396151914" cy="3717.7618673817447" r="43.07482570246793" fill="#447b48" stroke="#d7e1c022" stroke-width="7"/><circle cx="2039.6009029440768" cy="683.4437103660591" r="37.77390753943473" fill="#447b48" stroke="#d7e1c022" stroke-width="7"/><circle cx="3823.9050070578332" cy="2931.9415648396316" r="37.56932087126188" fill="#447b48" stroke="#d7e1c022" stroke-width="7"/><circle cx="2773.1482693556695" cy="2656.930982223582" r="41.066344384569675" fill="#447b48" stroke="#d7e1c022" stroke-width="7"/><circle cx="2316.7857645144595" cy="316.529449894838" r="36.08048899308778" fill="#9a7954" stroke="#d7e1c022" stroke-width="7"/><circle cx="4291.545896854755" cy="2956.9938950225155" r="38.19362438283861" fill="#447b48" stroke="#d7e1c022" stroke-width="7"/><circle cx="4506.61350071379" cy="3626.624384001419" r="46.244652789784595" fill="#899285" stroke="#d7e1c022" stroke-width="7"/><circle cx="4363.698787633851" cy="2141.676711250972" r="33.680489611346275" fill="#447b48" stroke="#d7e1c022" stroke-width="7"/><circle cx="6082.354907831653" cy="2013.3823317457363" r="34.53585300804116" fill="#9a7954" stroke="#d7e1c022" stroke-width="7"/><circle cx="6402.882633377668" cy="1531.168888349179" r="33.32712188921869" fill="#9a7954" stroke="#d7e1c022" stroke-width="7"/><circle cx="5982.973716924013" cy="2684.4655636355287" r="36.037848190171644" fill="#447b48" stroke="#d7e1c022" stroke-width="7"/><circle cx="1645.3835923846812" cy="289.8089834888093" r="36.95827731536701" fill="#447b48" stroke="#d7e1c022" stroke-width="7"/><circle cx="6399.032719090535" cy="2637.5055613408613" r="37.82182856486179" fill="#447b48" stroke="#d7e1c022" stroke-width="7"/><circle cx="2430.1029858097622" cy="2651.155254059304" r="32.13337817136198" fill="#447b48" stroke="#d7e1c022" stroke-width="7"/><circle cx="398.94417980288154" cy="3630.513544880301" r="36.27135389181785" fill="#447b48" stroke="#d7e1c022" stroke-width="7"/><circle cx="5505.13318398349" cy="1631.0879938639514" r="37.252431460190564" fill="#447b48" stroke="#d7e1c022" stroke-width="7"/><circle cx="5983.546224617092" cy="1568.7431129395588" r="32.16741193109192" fill="#447b48" stroke="#d7e1c022" stroke-width="7"/><circle cx="4407.552063343656" cy="444.70406294325375" r="40.58532115072012" fill="#447b48" stroke="#d7e1c022" stroke-width="7"/><circle cx="1785.0762642273028" cy="2854.1976018863916" r="31.790985223604366" fill="#447b48" stroke="#d7e1c022" stroke-width="7"/><circle cx="4594.366941291876" cy="4165.4477920154295" r="34.14703482715413" fill="#447b48" stroke="#d7e1c022" stroke-width="7"/><circle cx="1743.4221301383434" cy="4187.302422561385" r="36.51604144019075" fill="#447b48" stroke="#d7e1c022" stroke-width="7"/><circle cx="6402.783304599655" cy="4238.130811669622" r="33.04821529239416" fill="#899285" stroke="#d7e1c022" stroke-width="7"/><circle cx="6397.697679886306" cy="3345.5512623965" r="38.614838640904054" fill="#447b48" stroke="#d7e1c022" stroke-width="7"/><circle cx="854.3588948906585" cy="1100.2018898328206" r="35.18855350604281" fill="#447b48" stroke="#d7e1c022" stroke-width="7"/><circle cx="4062.0564340994047" cy="4172.17350301262" r="36.99114968650974" fill="#447b48" stroke="#d7e1c022" stroke-width="7"/><circle cx="4791.280147480238" cy="721.6014051325806" r="36.1294984491542" fill="#447b48" stroke="#d7e1c022" stroke-width="7"/><circle cx="867.7892341085989" cy="2694.8788869267705" r="31.54716029460542" fill="#447b48" stroke="#d7e1c022" stroke-width="7"/><circle cx="4958.0954060959075" cy="2888.9039095224257" r="36.034225024748594" fill="#447b48" stroke="#d7e1c022" stroke-width="7"/><circle cx="1740.9752517199051" cy="3450.222528755479" r="36.45699084387161" fill="#447b48" stroke="#d7e1c022" stroke-width="7"/><circle cx="4877.720197902788" cy="1817.92853048997" r="32.943769049830735" fill="#447b48" stroke="#d7e1c022" stroke-width="7"/><circle cx="3679.0297645117435" cy="712.1167017895729" r="43.50264613865875" fill="#447b48" stroke="#d7e1c022" stroke-width="7"/><circle cx="2717.968409982957" cy="1192.5292366719805" r="37.80524265719578" fill="#447b48" stroke="#d7e1c022" stroke-width="7"/><circle cx="2621.5623970163892" cy="713.0798568404838" r="39.02359309257008" fill="#447b48" stroke="#d7e1c022" stroke-width="7"/><circle cx="2830.1395961038957" cy="277.15201929884034" r="31.716017690487206" fill="#447b48" stroke="#d7e1c022" stroke-width="7"/><circle cx="2944.797407064484" cy="4168.592789828331" r="38.897642134455964" fill="#447b48" stroke="#d7e1c022" stroke-width="7"/><circle cx="6380.252655332387" cy="1152.927876377385" r="32.06412375951186" fill="#447b48" stroke="#d7e1c022" stroke-width="7"/><circle cx="6346.429016335672" cy="280.5599035379663" r="39.84120948356576" fill="#447b48" stroke="#d7e1c022" stroke-width="7"/><circle cx="923.2234764848091" cy="4537.849644733687" r="56.45423079188913" fill="#899285" stroke="#d7e1c022" stroke-width="7"/><circle cx="5557.88221288764" cy="4162.42539416574" r="38.364820301299915" fill="#447b48" stroke="#d7e1c022" stroke-width="7"/><circle cx="395.99680761806667" cy="3331.008060699832" r="43.48343334207311" fill="#899285" stroke="#d7e1c022" stroke-width="7"/><circle cx="856.7559162152838" cy="2963.564227448814" r="35.313173378119245" fill="#447b48" stroke="#d7e1c022" stroke-width="7"/><g><svg x="1109.72" y="434.67999999999995" width="360" height="430" viewBox="960 640 320 320" overflow="hidden"><image href="../environment-atlas-clean.png" width="1280" height="1280"/></svg></g><g><svg x="5318.280000000001" y="434.67999999999995" width="360" height="430" viewBox="960 640 320 320" overflow="hidden"><image href="../environment-atlas-clean.png" width="1280" height="1280"/></svg></g><g><svg x="1244.72" y="3397.5731409782015" width="360" height="430" viewBox="960 640 320 320" overflow="hidden"><image href="../environment-atlas-clean.png" width="1280" height="1280"/></svg></g><g><svg x="5183.280000000001" y="3397.5731409782015" width="360" height="430" viewBox="960 640 320 320" overflow="hidden"><image href="../environment-atlas-clean.png" width="1280" height="1280"/></svg></g><g><svg x="1680.390854637602" y="1551.64" width="360" height="430" viewBox="960 640 320 320" overflow="hidden"><image href="../environment-atlas-clean.png" width="1280" height="1280"/></svg></g><g><svg x="4795.84" y="3006.36" width="360" height="430" viewBox="960 640 320 320" overflow="hidden"><image href="../environment-atlas-clean.png" width="1280" height="1280"/></svg></g><g><svg x="3184" y="3656.4" width="420" height="380" viewBox="0 960 320 320" overflow="hidden"><image href="../environment-atlas-clean.png" width="1280" height="1280"/></svg></g><g><svg x="3224" y="1421.64" width="340" height="330" viewBox="0 960 320 320" overflow="hidden"><image href="../environment-atlas-clean.png" width="1280" height="1280"/></svg></g><rect x="20" y="20" width="6748" height="4768" fill="none" stroke="#f2b064" stroke-width="12"/><text x="120" y="180" fill="#f6efca" font-family="Microsoft YaHei,sans-serif" font-size="110">南瓜堡垒 · 北 ↑</text><g font-family="Microsoft YaHei,sans-serif" text-anchor="middle" font-weight="700"><circle cx="4086.3759999999997" cy="2404" r="98" fill="#182d25" stroke="#ffe48a" stroke-width="24"/><text x="4086.3759999999997" y="2439" font-size="108" fill="#ffe48a">1</text><circle cx="5158.88" cy="1298.16" r="98" fill="#182d25" stroke="#a6ec9d" stroke-width="24"/><text x="5158.88" y="1333.16" font-size="108" fill="#a6ec9d">2</text><circle cx="3190.3599999999997" cy="817.36" r="98" fill="#182d25" stroke="#8bdde8" stroke-width="24"/><text x="3190.3599999999997" y="852.36" font-size="108" fill="#8bdde8">3</text><circle cx="1493.36" cy="1442.3999999999999" r="98" fill="#182d25" stroke="#a3dffa" stroke-width="24"/><text x="1493.36" y="1477.3999999999999" font-size="108" fill="#a3dffa">4</text><circle cx="1832.7600000000002" cy="3654.08" r="98" fill="#182d25" stroke="#f6bbd0" stroke-width="24"/><text x="1832.7600000000002" y="3689.08" font-size="108" fill="#f6bbd0">5</text><circle cx="5701.92" cy="3365.6" r="98" fill="#182d25" stroke="#ffc977" stroke-width="24"/><text x="5701.92" y="3400.6" font-size="108" fill="#ffc977">6</text><circle cx="3394" cy="2404" r="92" fill="#fff5c9" stroke="#243e30" stroke-width="20"/><text x="3394" y="2438" font-size="88" fill="#243e30">起</text></g></svg>