<svg xmlns="http://www.w3.org/2000/svg" viewBox="0 0 6788 4808" preserveAspectRatio="none" role="img" aria-label="果园终极保卫战真实地形与饰品分布"><rect width="100%" height="100%" fill="#3a4544"/><polygon points="713,577 2002,577 2002,1539 713,1539" fill="#647e42"/><polygon points="4582,769 5872,769 5872,1731 4582,1731" fill="#8c5f65"/><polygon points="4989,3269 6279,3269 6279,4231 4989,4231" fill="#9d8040"/><polygon points="848,3366 2138,3366 2138,4327 848,4327" fill="#95623e"/><polygon points="2783,1106 4005,1106 4005,2260 2783,2260" fill="#bbaa59"/><polyline points="4887,2404 4774,2919 4450,3356 3965,3648 3394,3750 2823,3648 2338,3356 2014,2919 1901,2404 2014,1889 2338,1452 2823,1160 3394,1058 3965,1160 4450,1452 4774,1889 4887,2404" fill="none" stroke="#ba9f6d" stroke-width="300" stroke-linecap="round" stroke-linejoin="round"/><polyline points="3394,2404 543,865" fill="none" stroke="#ba9f6d" stroke-width="280" stroke-linecap="round" stroke-linejoin="round"/><polyline points="3394,2404 6109,721" fill="none" stroke="#ba9f6d" stroke-width="280" stroke-linecap="round" stroke-linejoin="round"/><polyline points="3394,2404 6381,3462" fill="none" stroke="#ba9f6d" stroke-width="280" stroke-linecap="round" stroke-linejoin="round"/><polyline points="3394,2404 4887,4471" fill="none" stroke="#ba9f6d" stroke-width="280" stroke-linecap="round" stroke-linejoin="round"/><polyline points="3394,2404 679,4135" fill="none" stroke="#ba9f6d" stroke-width="280" stroke-linecap="round" stroke-linejoin="round"/><polyline points="3394,2404 3258,385" fill="none" stroke="#ba9f6d" stroke-width="280" stroke-linecap="round" stroke-linejoin="round"/><polyline points="4086,2404 4009,2622" fill="none" stroke="#ba9f6d" stroke-width="225" stroke-linecap="round" stroke-linejoin="round"/><polyline points="5159,1298 5164,1307" fill="none" stroke="#ba9f6d" stroke-width="225" stroke-linecap="round" stroke-linejoin="round"/><polyline points="3190,817 3287,811" fill="none" stroke="#ba9f6d" stroke-width="225" stroke-linecap="round" stroke-linejoin="round"/><polyline points="1493,1442 1520,1393" fill="none" stroke="#ba9f6d" stroke-width="225" stroke-linecap="round" stroke-linejoin="round"/><polyline points="1833,3654 1717,3473" fill="none" stroke="#ba9f6d" stroke-width="225" stroke-linecap="round" stroke-linejoin="round"/><polyline points="5702,3366 5747,3237" fill="none" stroke="#ba9f6d" stroke-width="225" stroke-linecap="round" stroke-linejoin="round"/><circle cx="3754" cy="1634.72" r="150" fill="#557c58" stroke="#d7e1c022" stroke-width="7"/><circle cx="869.3808255374153" cy="720.2169333134499" r="37.045820044353604" fill="#447b48" stroke="#d7e1c022" stroke-width="7"/><circle cx="1379.5088315214803" cy="681.0354075460696" r="36.37838153028861" fill="#447b48" stroke="#d7e1c022" stroke-width="7"/><circle cx="1852.8404955846518" cy="716.8834072378223" r="38.37484853435308" fill="#447b48" stroke="#d7e1c022" stroke-width="7"/><circle cx="1119.8896766982425" cy="902.6643077602535" r="42.48128100624308" fill="#447b48" stroke="#d7e1c022" stroke-width="7"/><circle cx="1606.2958202844393" cy="881.1815353342275" r="36.789927423000336" fill="#447b48" stroke="#d7e1c022" stroke-width="7"/><circle cx="1870.0808159868186" cy="1038.3441201067678" r="41.3214870528318" fill="#447b48" stroke="#d7e1c022" stroke-width="7"/><circle cx="858.2066146694309" cy="1398.4975651718842" r="38.6931050112471" fill="#447b48" stroke="#d7e1c022" stroke-width="7"/><circle cx="4719.410232644145" cy="912.1701563165354" r="42.64089099224657" fill="#ca8b98" stroke="#d7e1c022" stroke-width="7"/><circle cx="4987.924829242669" cy="871.2368935925756" r="34.102167748846114" fill="#ca8b98" stroke="#d7e1c022" stroke-width="7"/><circle cx="4699.895239047025" cy="1248.1067101134824" r="34.93268936034292" fill="#ca8b98" stroke="#d7e1c022" stroke-width="7"/><circle cx="5748.215490351102" cy="1272.691094459217" r="39.78692542621866" fill="#ca8b98" stroke="#d7e1c022" stroke-width="7"/><circle cx="5489.9891810485105" cy="1428.2647541680615" r="37.648607544600964" fill="#ca8b98" stroke="#d7e1c022" stroke-width="7"/><circle cx="5229.872957744547" cy="1584.9230340690094" r="34.121933210175484" fill="#ca8b98" stroke="#d7e1c022" stroke-width="7"/><circle cx="5745.252444327356" cy="1593.5284154811113" r="34.85990381427109" fill="#ca8b98" stroke="#d7e1c022" stroke-width="7"/><circle cx="5143.509728047481" cy="3379.372755208058" r="38.33895329013467" fill="#bb914a" stroke="#d7e1c022" stroke-width="7"/><circle cx="5376.881604968085" cy="3589.8767694596613" r="39.099456461612135" fill="#bb914a" stroke="#d7e1c022" stroke-width="7"/><circle cx="5888.94388488236" cy="3583.4378812640557" r="40.9785611750558" fill="#bb914a" stroke="#d7e1c022" stroke-width="7"/><circle cx="5153.2593889515" cy="3752.390737151787" r="35.128184215631336" fill="#bb914a" stroke="#d7e1c022" stroke-width="7"/><circle cx="5621.739515412745" cy="3736.6364515246432" r="35.48147400468588" fill="#bb914a" stroke="#d7e1c022" stroke-width="7"/><circle cx="6146.714279139201" cy="3738.0283219975267" r="43.86879757838324" fill="#bb914a" stroke="#d7e1c022" stroke-width="7"/><circle cx="5407.682611105244" cy="3921.3269521930833" r="41.964066485874355" fill="#bb914a" stroke="#d7e1c022" stroke-width="7"/><circle cx="5896.334915001646" cy="3917.749107002072" r="39.61673477990553" fill="#bb914a" stroke="#d7e1c022" stroke-width="7"/><circle cx="5102.03792238603" cy="4089.3093159268556" r="36.60896838270128" fill="#bb914a" stroke="#d7e1c022" stroke-width="7"/><circle cx="5655.473230420954" cy="4130.474581159305" r="42.462667299900204" fill="#bb914a" stroke="#d7e1c022" stroke-width="7"/><circle cx="6147.925175737373" cy="4116.285421159426" r="39.174813964404166" fill="#bb914a" stroke="#d7e1c022" stroke-width="7"/><circle cx="967.9391526767726" cy="3492.4514019002936" r="43.15543198119849" fill="#c7784d" stroke="#d7e1c022" stroke-width="7"/><circle cx="1262.3226628505884" cy="3486.2339292971737" r="40.36752013582736" fill="#c7784d" stroke="#d7e1c022" stroke-width="7"/><circle cx="1753.6049286423877" cy="3868.33739964578" r="40.24159614788368" fill="#c7784d" stroke="#d7e1c022" stroke-width="7"/><circle cx="1482.1187670421173" cy="4044.000921394935" r="38.1192835662514" fill="#c7784d" stroke="#d7e1c022" stroke-width="7"/><circle cx="2003.7890605775256" cy="4031.4403468500936" r="43.67361495131627" fill="#c7784d" stroke="#d7e1c022" stroke-width="7"/><circle cx="1246.9309588394462" cy="4181.861573124969" r="34.694108796305954" fill="#c7784d" stroke="#d7e1c022" stroke-width="7"/><circle cx="1778.0022266896563" cy="4214.223892630979" r="41.10383148631081" fill="#c7784d" stroke="#d7e1c022" stroke-width="7"/><circle cx="5135.24" cy="2307.8399999999997" r="37.199999999999996" fill="#557c58" stroke="#d7e1c022" stroke-width="7"/><circle cx="533.3410731981695" cy="1441.3994067102483" r="43.42538378993049" fill="#447b48" stroke="#d7e1c022" stroke-width="7"/><circle cx="5795.292668850673" cy="460.8404484419152" r="38.704284413019195" fill="#447b48" stroke="#d7e1c022" stroke-width="7"/><circle cx="5460.0324076891875" cy="265.93524749936535" r="53.72343300189823" fill="#899285" stroke="#d7e1c022" stroke-width="7"/><circle cx="5565.1360212650625" cy="2424.7381423491242" r="39.03576416964643" fill="#447b48" stroke="#d7e1c022" stroke-width="7"/><circle cx="4813.855054149106" cy="357.617812225055" r="34.35291887493804" fill="#447b48" stroke="#d7e1c022" stroke-width="7"/><circle cx="2222.289207207402" cy="4542.858113367446" r="37.27021987945773" fill="#899285" stroke="#d7e1c022" stroke-width="7"/><circle cx="1287.6555023161134" cy="2608.8392830559055" r="40.04035726748407" fill="#447b48" stroke="#d7e1c022" stroke-width="7"/><circle cx="2907.7464450308403" cy="2427.556313531995" r="42.0764094858896" fill="#447b48" stroke="#d7e1c022" stroke-width="7"/><circle cx="2772.2573092341795" cy="601.4215771914088" r="42.97345021320507" fill="#447b48" stroke="#d7e1c022" stroke-width="7"/><circle cx="4223.51008518069" cy="997.7928465553001" r="37.04647296224721" fill="#447b48" stroke="#d7e1c022" stroke-width="7"/><circle cx="2580.1565750262325" cy="3825.411185820569" r="33.449731522239745" fill="#447b48" stroke="#d7e1c022" stroke-width="7"/><rect x="3737.9517503356283" y="4291.684635043256" width="65.3117571119219" height="65.3117571119219" fill="#af8654"/><circle cx="5971.861743117906" cy="4358.652804437335" r="38.9738871823065" fill="#447b48" stroke="#d7e1c022" stroke-width="7"/><circle cx="6349.52614547371" cy="1699.2446574284509" r="38.592131230281666" fill="#447b48" stroke="#d7e1c022" stroke-width="7"/><circle cx="685.3249147205614" cy="1886.7910928284562" r="41.90059524215758" fill="#447b48" stroke="#d7e1c022" stroke-width="7"/><circle cx="2974.2421725539584" cy="2978.008153801859" r="41.93710222910158" fill="#447b48" stroke="#d7e1c022" stroke-width="7"/><circle cx="6361.91997477077" cy="800.3375556178205" r="51.69498364487663" fill="#899285" stroke="#d7e1c022" stroke-width="7"/><circle cx="6188.103687252133" cy="3137.8543054520715" r="31.34385932260193" fill="#447b48" stroke="#d7e1c022" stroke-width="7"/><circle cx="1182.2999250963517" cy="2923.8867241423022" r="34.529029318131506" fill="#447b48" stroke="#d7e1c022" stroke-width="7"/><circle cx="1575.6552192334923" cy="1153.6060737407954" r="42.59965029149316" fill="#447b48" stroke="#d7e1c022" stroke-width="7"/><circle cx="4515.767596503087" cy="4343.6125525168145" r="32.82700088946149" fill="#9a7954" stroke="#d7e1c022" stroke-width="7"/><circle cx="2956.4950867329817" cy="4101.933996051811" r="33.045737724984065" fill="#447b48" stroke="#d7e1c022" stroke-width="7"/><circle cx="6267.940583712329" cy="2850.309561856557" r="39.59480502922088" fill="#9a7954" stroke="#d7e1c022" stroke-width="7"/><circle cx="6132.234999626885" cy="2579.3461628977207" r="34.0518626885023" fill="#447b48" stroke="#d7e1c022" stroke-width="7"/><circle cx="4596.54312712852" cy="2411.483823403176" r="53.28097222885117" fill="#899285" stroke="#d7e1c022" stroke-width="7"/><circle cx="5462.843682456342" cy="2713.4620958578216" r="39.86062601977028" fill="#447b48" stroke="#d7e1c022" stroke-width="7"/><circle cx="653.1177244289778" cy="2595.283963834587" r="41.96047887392342" fill="#447b48" stroke="#d7e1c022" stroke-width="7"/><circle cx="5559.190580058777" cy="1961.9547626411168" r="38.5494749059435" fill="#447b48" stroke="#d7e1c022" stroke-width="7"/><circle cx="1667.5941688152402" cy="2572.442453101408" r="41.09630799340084" fill="#447b48" stroke="#d7e1c022" stroke-width="7"/><circle cx="4209.242271974487" cy="499.953022906296" r="42.73368630022742" fill="#447b48" stroke="#d7e1c022" stroke-width="7"/><circle cx="3642.4396862638932" cy="3182.8709059423395" r="55.24611635413021" fill="#899285" stroke="#d7e1c022" stroke-width="7"/><circle cx="1451.5827221347856" cy="1685.5224343191087" r="41.506002771435305" fill="#447b48" stroke="#d7e1c022" stroke-width="7"/><circle cx="6013.77225899525" cy="1481.5597249595635" r="52.629659260157496" fill="#899285" stroke="#d7e1c022" stroke-width="7"/><circle cx="3576.392368758535" cy="695.9062695157901" r="34.94099170085974" fill="#447b48" stroke="#d7e1c022" stroke-width="7"/><circle cx="3061.9686260195635" cy="1652.9287627452052" r="34.525218131020665" fill="#447b48" stroke="#d7e1c022" stroke-width="7"/><circle cx="1081.694010749655" cy="1712.326017908901" r="31.938510480104014" fill="#447b48" stroke="#d7e1c022" stroke-width="7"/><circle cx="2182.4576203170045" cy="2257.5078102778457" r="32.01039860909805" fill="#447b48" stroke="#d7e1c022" stroke-width="7"/><circle cx="400.488932473911" cy="1985.197065082006" r="38.15316806570627" fill="#447b48" stroke="#d7e1c022" stroke-width="7"/><circle cx="2084.857027444187" cy="1201.6095107785054" r="39.2981718396768" fill="#447b48" stroke="#d7e1c022" stroke-width="7"/><circle cx="1159.0379723427538" cy="2015.8156143253298" r="41.256429988658056" fill="#447b48" stroke="#d7e1c022" stroke-width="7"/><circle cx="938.1862676180899" cy="2822.007836486083" r="39.29907839605585" fill="#447b48" stroke="#d7e1c022" stroke-width="7"/><circle cx="421.8823505039047" cy="3641.978316238038" r="31.7852621471975" fill="#447b48" stroke="#d7e1c022" stroke-width="7"/><circle cx="1558.4894140973875" cy="2946.9063691728006" r="39.189832725562155" fill="#447b48" stroke="#d7e1c022" stroke-width="7"/><circle cx="874.2331140321958" cy="297.1897943885624" r="44.57260725251399" fill="#899285" stroke="#d7e1c022" stroke-width="7"/><circle cx="6046.7824178619685" cy="1785.6279185986334" r="38.91889721760526" fill="#447b48" stroke="#d7e1c022" stroke-width="7"/><circle cx="808.4563442283776" cy="4409.575536157079" r="43.07840527896769" fill="#9a7954" stroke="#d7e1c022" stroke-width="7"/><rect x="3072.222507125158" y="3193.645939623434" width="67.53098978847265" height="67.53098978847265" fill="#af8654"/><circle cx="4365.61877594729" cy="2148.949219239801" r="32.58948056655936" fill="#9a7954" stroke="#d7e1c022" stroke-width="7"/><circle cx="2228.2924556357043" cy="415.1816980898939" r="42.71108345640823" fill="#9a7954" stroke="#d7e1c022" stroke-width="7"/><circle cx="5317.122367349146" cy="4290.137036779188" r="41.70225765951909" fill="#447b48" stroke="#d7e1c022" stroke-width="7"/><circle cx="4485.225980576147" cy="365.2044857330806" r="35.94666064996272" fill="#447b48" stroke="#d7e1c022" stroke-width="7"/><circle cx="741.2668428315687" cy="3213.261468511671" r="37.299119549570605" fill="#447b48" stroke="#d7e1c022" stroke-width="7"/><circle cx="5246.6425411032515" cy="691.2045787606202" r="36.24331198213622" fill="#447b48" stroke="#d7e1c022" stroke-width="7"/><circle cx="4722.025417423575" cy="3723.904470859729" r="35.237537779146805" fill="#447b48" stroke="#d7e1c022" stroke-width="7"/><circle cx="1748.6126059586743" cy="325.4930490952916" r="32.567091087810695" fill="#447b48" stroke="#d7e1c022" stroke-width="7"/><circle cx="1319.7742045299801" cy="271.9887519467622" r="38.899359164526686" fill="#447b48" stroke="#d7e1c022" stroke-width="7"/><circle cx="5986.515657985695" cy="2203.6129326055016" r="39.2394671398215" fill="#447b48" stroke="#d7e1c022" stroke-width="7"/><circle cx="2959.166757417647" cy="284.01253705259415" r="40.25632571452297" fill="#447b48" stroke="#d7e1c022" stroke-width="7"/><circle cx="2321.786483771559" cy="3804.6537110670847" r="41.22197615168989" fill="#447b48" stroke="#d7e1c022" stroke-width="7"/><circle cx="738.3442676761467" cy="2195.5559199517966" r="38.215939801884815" fill="#447b48" stroke="#d7e1c022" stroke-width="7"/><circle cx="6252.313481441624" cy="4423.826623669621" r="36.54718006728217" fill="#447b48" stroke="#d7e1c022" stroke-width="7"/><circle cx="4178.188244121885" cy="4303.237309221066" r="39.68339914199896" fill="#447b48" stroke="#d7e1c022" stroke-width="7"/><circle cx="398.8450831145979" cy="2331.9887196260875" r="37.86323121096939" fill="#899285" stroke="#d7e1c022" stroke-width="7"/><circle cx="2232.4500365085246" cy="2600.9534145867083" r="33.46558068296872" fill="#447b48" stroke="#d7e1c022" stroke-width="7"/><circle cx="2799.7149196423593" cy="1517.38147068141" r="31.56254535028711" fill="#447b48" stroke="#d7e1c022" stroke-width="7"/><circle cx="5862.581029219618" cy="2675.412556548305" r="42.4298717409838" fill="#447b48" stroke="#d7e1c022" stroke-width="7"/><circle cx="5109.994553152715" cy="1899.477808835525" r="52.37121613975614" fill="#899285" stroke="#d7e1c022" stroke-width="7"/><circle cx="375.8568949668575" cy="3257.750691093654" r="34.17756127822213" fill="#447b48" stroke="#d7e1c022" stroke-width="7"/><circle cx="2507.853076298237" cy="2518.227177989166" r="49.55153863923624" fill="#899285" stroke="#d7e1c022" stroke-width="7"/><circle cx="4197.482198146946" cy="4028.2035334983843" r="54.87806594395079" fill="#899285" stroke="#d7e1c022" stroke-width="7"/><circle cx="2325.141195938159" cy="816.489580198694" r="40.44469058979303" fill="#447b48" stroke="#d7e1c022" stroke-width="7"/><circle cx="4636.980985844592" cy="597.74541648753" r="43.21711173444055" fill="#447b48" stroke="#d7e1c022" stroke-width="7"/><circle cx="1416.3374561787025" cy="2133.3183974361978" r="55.125407041516155" fill="#899285" stroke="#d7e1c022" stroke-width="7"/><circle cx="5770.25517199195" cy="2959.2022177186986" r="38.32807404291816" fill="#9a7954" stroke="#d7e1c022" stroke-width="7"/><rect x="2335.973891109843" y="4079.097773480733" width="70.70985557883978" height="70.70985557883978" fill="#af8654"/><circle cx="611.6022885692586" cy="567.5982196374238" r="31.66746601345949" fill="#447b48" stroke="#d7e1c022" stroke-width="7"/><circle cx="3714.529156062715" cy="339.4055993469618" r="43.10711791506037" fill="#447b48" stroke="#d7e1c022" stroke-width="7"/><circle cx="1698.7814625907968" cy="1841.0511352194474" r="38.2552922910545" fill="#447b48" stroke="#d7e1c022" stroke-width="7"/><circle cx="1492.945378248375" cy="3309.2831069088916" r="40.35697507485747" fill="#447b48" stroke="#d7e1c022" stroke-width="7"/><circle cx="3487.063813952925" cy="4518.274904839099" r="39.38933853129856" fill="#447b48" stroke="#d7e1c022" stroke-width="7"/><circle cx="2561.592403948121" cy="4409.720743396488" r="42.323414753656834" fill="#899285" stroke="#d7e1c022" stroke-width="7"/><circle cx="4869.123826394072" cy="3951.2089871551475" r="43.79811710421927" fill="#447b48" stroke="#d7e1c022" stroke-width="7"/><circle cx="382.4015285587497" cy="4112.162000652422" r="40.428090126253664" fill="#447b48" stroke="#d7e1c022" stroke-width="7"/><rect x="4049.149605853717" y="757.89036066439" width="52.21582970954478" height="52.21582970954478" fill="#af8654"/><circle cx="3580.260515452214" cy="3969.0544751623834" r="39.57493761507794" fill="#9a7954" stroke="#d7e1c022" stroke-width="7"/><circle cx="2939.5240498916714" cy="4454.120504290946" r="35.85318124224432" fill="#447b48" stroke="#d7e1c022" stroke-width="7"/><circle cx="6224.778392448557" cy="2022.315487689767" r="33.07577957957983" fill="#447b48" stroke="#d7e1c022" stroke-width="7"/><circle cx="5110.548534458922" cy="336.78836102917796" r="42.15181359532289" fill="#447b48" stroke="#d7e1c022" stroke-width="7"/><circle cx="4812.964780450576" cy="3390.5194780751135" r="39.68471089890227" fill="#447b48" stroke="#d7e1c022" stroke-width="7"/><circle cx="1089.4089406290184" cy="4466.696231334619" r="33.29219342605211" fill="#447b48" stroke="#d7e1c022" stroke-width="7"/><circle cx="6274.504193804506" cy="403.25053795667367" r="41.743779494427145" fill="#447b48" stroke="#d7e1c022" stroke-width="7"/><circle cx="2638.058471368225" cy="945.9437983566523" r="41.707770821405575" fill="#447b48" stroke="#d7e1c022" stroke-width="7"/><circle cx="508.0789978770912" cy="4467.716796771865" r="36.09283844055608" fill="#899285" stroke="#d7e1c022" stroke-width="7"/><circle cx="5368.974605756468" cy="2171.0860795757544" r="32.14936651033349" fill="#447b48" stroke="#d7e1c022" stroke-width="7"/><circle cx="3263.3281566171163" cy="2772.3313823012454" r="34.731917798519135" fill="#899285" stroke="#d7e1c022" stroke-width="7"/><circle cx="1010.8264497744385" cy="3120.0101953419303" r="42.534843899076805" fill="#9a7954" stroke="#d7e1c022" stroke-width="7"/><circle cx="448.7288827190921" cy="2990.3310402156976" r="34.80151452263817" fill="#9a7954" stroke="#d7e1c022" stroke-width="7"/><circle cx="2506.748085840968" cy="589.5300751882419" r="38.82877491344698" fill="#899285" stroke="#d7e1c022" stroke-width="7"/><circle cx="2109.7141694836505" cy="4300.455633879472" r="39.19638228137046" fill="#447b48" stroke="#d7e1c022" stroke-width="7"/><circle cx="2073.7166514815485" cy="3622.680310486034" r="35.858670552959666" fill="#447b48" stroke="#d7e1c022" stroke-width="7"/><circle cx="419.95710992954673" cy="1721.4224093265645" r="43.41173584619537" fill="#899285" stroke="#d7e1c022" stroke-width="7"/><circle cx="3810.5867277945486" cy="802.9702726118638" r="42.469884417252615" fill="#447b48" stroke="#d7e1c022" stroke-width="7"/><rect x="1567.1354241684637" y="4455.815308923666" width="72.35816039144993" height="72.35816039144993" fill="#af8654"/><circle cx="3368.5390547256266" cy="3045.748536022976" r="31.208671120693907" fill="#447b48" stroke="#d7e1c022" stroke-width="7"/><circle cx="6173.391793556587" cy="1122.7912045489065" r="39.188130693975836" fill="#899285" stroke="#d7e1c022" stroke-width="7"/><circle cx="2769.639088111026" cy="3249.4516477764773" r="31.243703896412626" fill="#447b48" stroke="#d7e1c022" stroke-width="7"/><circle cx="3858.708829907868" cy="4076.3910906654787" r="34.661143134348094" fill="#447b48" stroke="#d7e1c022" stroke-width="7"/><circle cx="2627.7647601471563" cy="268.6941810628772" r="31.781669900519773" fill="#447b48" stroke="#d7e1c022" stroke-width="7"/><circle cx="5163.177650335916" cy="2701.9058582363095" r="36.81646032212302" fill="#447b48" stroke="#d7e1c022" stroke-width="7"/><circle cx="5719.95579111035" cy="4430.3015115652615" r="32.01901268051006" fill="#447b48" stroke="#d7e1c022" stroke-width="7"/><rect x="2366.9200241804683" y="1043.393244431559" width="60.63380189239979" height="60.63380189239979" fill="#af8654"/><circle cx="3247.8677608829457" cy="4052.9469845843314" r="41.56873830105178" fill="#447b48" stroke="#d7e1c022" stroke-width="7"/><circle cx="6364.7405598526075" cy="1387.3437444875203" r="43.592713351827115" fill="#447b48" stroke="#d7e1c022" stroke-width="7"/><circle cx="2485.0997854629063" cy="2244.573725376911" r="42.41305465553887" fill="#447b48" stroke="#d7e1c022" stroke-width="7"/><circle cx="1220.1256223411299" cy="2344.253825026173" r="33.72395337652415" fill="#447b48" stroke="#d7e1c022" stroke-width="7"/><rect x="5478.975997572887" y="527.4456865908578" width="62.99041319079697" height="62.99041319079697" fill="#af8654"/><circle cx="6277.932029708699" cy="2324.5228228334895" r="32.203658994752914" fill="#447b48" stroke="#d7e1c022" stroke-width="7"/><circle cx="901.1800510777813" cy="2486.3638516541946" r="34.38500263192691" fill="#447b48" stroke="#d7e1c022" stroke-width="7"/><circle cx="5320.743044500072" cy="2498.3103559617884" r="34.94534068647772" fill="#447b48" stroke="#d7e1c022" stroke-width="7"/><circle cx="3401.139137764955" cy="3411.930744575784" r="36.03269748738967" fill="#447b48" stroke="#d7e1c022" stroke-width="7"/><circle cx="520.2190293180942" cy="3880.1281529661833" r="36.39556026691571" fill="#447b48" stroke="#d7e1c022" stroke-width="7"/><circle cx="2705.9537055895385" cy="4050.33526682172" r="42.52999796462245" fill="#447b48" stroke="#d7e1c022" stroke-width="7"/><circle cx="4216.902666393723" cy="3143.9426847439445" r="35.30354039557278" fill="#447b48" stroke="#d7e1c022" stroke-width="7"/><circle cx="5126.891882515597" cy="4507.865797932894" r="39.20161075773649" fill="#447b48" stroke="#d7e1c022" stroke-width="7"/><circle cx="403.0650567398593" cy="1054.5103359653615" r="42.3132249279879" fill="#447b48" stroke="#d7e1c022" stroke-width="7"/><circle cx="391.0710631899815" cy="2655.6326933076602" r="40.82707765349187" fill="#447b48" stroke="#d7e1c022" stroke-width="7"/><circle cx="4019.693777889368" cy="308.6267557379045" r="35.42090234719217" fill="#9a7954" stroke="#d7e1c022" stroke-width="7"/><circle cx="429.49056411881935" cy="393.48114094838496" r="39.46662487345748" fill="#447b48" stroke="#d7e1c022" stroke-width="7"/><rect x="2512.133343038" y="1591.6468680070152" width="53.09513573721051" height="53.09513573721051" fill="#af8654"/><circle cx="4478.958540891697" cy="1108.6448451860622" r="45.19720242754556" fill="#899285" stroke="#d7e1c022" stroke-width="7"/><circle cx="1044.560043582339" cy="528.190148515571" r="41.35875924024731" fill="#9a7954" stroke="#d7e1c022" stroke-width="7"/><circle cx="2929.881171724433" cy="865.9264506580681" r="33.51272226939909" fill="#899285" stroke="#d7e1c022" stroke-width="7"/><circle cx="1892.1139532599225" cy="4512.502174572404" r="32.61626061005518" fill="#447b48" stroke="#d7e1c022" stroke-width="7"/><circle cx="4306.930696040756" cy="2409.743961807825" r="31.864469235064462" fill="#447b48" stroke="#d7e1c022" stroke-width="7"/><circle cx="6366.038430941534" cy="3928.49661516944" r="32.967924535274506" fill="#447b48" stroke="#d7e1c022" stroke-width="7"/><circle cx="1689.1273597202544" cy="2135.4380126517267" r="36.58012859872542" fill="#447b48" stroke="#d7e1c022" stroke-width="7"/><circle cx="4332.687514929325" cy="724.6210601401143" r="31.041599160525948" fill="#447b48" stroke="#d7e1c022" stroke-width="7"/><circle cx="2771.0206774820667" cy="1795.3842659350858" r="40.20594986178912" fill="#447b48" stroke="#d7e1c022" stroke-width="7"/><g><svg x="3454" y="1299.72" width="600" height="670" viewBox="320 960 320 320" overflow="hidden"><image href="../environment-atlas-clean.png" width="1280" height="1280"/></svg></g><g><svg x="3204" y="4137.2" width="380" height="380" viewBox="0 0 320 320" overflow="hidden"><image href="../environment-atlas-clean.png" width="1280" height="1280"/></svg></g><g><svg x="5057.74" y="2190.3399999999997" width="155" height="235" viewBox="960 960 320 320" overflow="hidden"><image href="../environment-atlas-clean.png" width="1280" height="1280"/></svg></g><rect x="20" y="20" width="6748" height="4768" fill="none" stroke="#ffe697" stroke-width="12"/><text x="120" y="180" fill="#f6efca" font-family="Microsoft YaHei,sans-serif" font-size="110">果园终极保卫战 · 北 ↑</text><g font-family="Microsoft YaHei,sans-serif" text-anchor="middle" font-weight="700"><circle cx="4086.3759999999997" cy="2404" r="98" fill="#182d25" stroke="#ffe48a" stroke-width="24"/><text x="4086.3759999999997" y="2439" font-size="108" fill="#ffe48a">1</text><circle cx="5158.88" cy="1298.16" r="98" fill="#182d25" stroke="#a6ec9d" stroke-width="24"/><text x="5158.88" y="1333.16" font-size="108" fill="#a6ec9d">2</text><circle cx="3190.3599999999997" cy="817.36" r="98" fill="#182d25" stroke="#8bdde8" stroke-width="24"/><text x="3190.3599999999997" y="852.36" font-size="108" fill="#8bdde8">3</text><circle cx="1493.36" cy="1442.3999999999999" r="98" fill="#182d25" stroke="#a3dffa" stroke-width="24"/><text x="1493.36" y="1477.3999999999999" font-size="108" fill="#a3dffa">4</text><circle cx="1832.7600000000002" cy="3654.08" r="98" fill="#182d25" stroke="#f6bbd0" stroke-width="24"/><text x="1832.7600000000002" y="3689.08" font-size="108" fill="#f6bbd0">5</text><circle cx="5701.92" cy="3365.6" r="98" fill="#182d25" stroke="#ffc977" stroke-width="24"/><text x="5701.92" y="3400.6" font-size="108" fill="#ffc977">6</text><circle cx="3394" cy="2404" r="92" fill="#fff5c9" stroke="#243e30" stroke-width="20"/><text x="3394" y="2438" font-size="88" fill="#243e30">起</text></g></svg>