<svg xmlns="http://www.w3.org/2000/svg" width="128" height="128" viewBox="0 0 128 128"><defs><radialGradient id="fruit" cx="30%" cy="24%" r="80%"><stop stop-color="#a2ddb0"/><stop offset=".5" stop-color="#74b989"/><stop offset="1" stop-color="#447a53"/></radialGradient></defs><ellipse cx="64" cy="117" rx="35" ry="6" fill="#14251e" opacity=".18"/><path d="M42 107L37 118H53L55 108M75 108L76 118H92L85 106" fill="#55775d"/><path d="M20 51A47 47 0 0 1 110 51L64 109Z" fill="#5c9567" stroke="#355c44" stroke-width="3"/><path d="M28 51A39 39 0 0 1 102 51L64 99Z" fill="url(#fruit)"/><path d="M34 53A32 32 0 0 1 96 53L64 91Z" fill="#ed8490"/><path d="M42 44L40 50M84 44L86 50M54 36L53 43M74 36L75 43M64 73L64 79" stroke="#54413c" stroke-width="3" stroke-linecap="round"/><path d="M10 71L28 62L39 76L27 96L11 87Z" fill="#9adfee" stroke="#598797" stroke-width="3"/><path d="M17 76L30 83M24 72L21 89" stroke="#e5fbff" stroke-width="2"/><ellipse cx="51" cy="59" rx="3" ry="4" fill="#3d3642"/><ellipse cx="76" cy="59" rx="3" ry="4" fill="#3d3642"/><path d="M57 69Q64 74 70 69" fill="none" stroke="#6d4550" stroke-width="2" stroke-linecap="round"/><ellipse cx="42" cy="66" rx="6" ry="3" fill="#edb1ad" opacity=".8"/><ellipse cx="85" cy="66" rx="6" ry="3" fill="#edb1ad" opacity=".8"/></svg>
