<svg xmlns="http://www.w3.org/2000/svg" width="128" height="128" viewBox="0 0 128 128" role="img"><title>红苹果精灵</title><defs><radialGradient id="apple-fruit" cx="31%" cy="24%" r="83%"><stop stop-color="#ffe2b2"/><stop offset=".5" stop-color="#ef7c6d"/><stop offset="1" stop-color="#bf404a"/></radialGradient><linearGradient id="apple-leaf" x2=".8" y2="1"><stop stop-color="#b6e987"/><stop offset="1" stop-color="#518d4e"/></linearGradient></defs><ellipse cx="64" cy="119" rx="29" ry="4.5" fill="#173b2c" opacity=".16"/><g stroke-linecap="round" stroke-linejoin="round"><path d="M32 79Q17 78 13 90M96 79Q111 78 115 89" fill="none" stroke="#477d4b" stroke-width="6" stroke-linecap="round"/><path d="M14 90Q6 82 8 80Q21 79 17 91M113 89Q120 79 123 82Q125 91 114 93" fill="#8fcb70" stroke="#294d38" stroke-width="2.4"/><path d="M49 104L45 115M78 104L83 115" fill="none" stroke="#294d38" stroke-width="5" stroke-linecap="round"/><ellipse cx="42" cy="115" rx="9" ry="3.8" fill="#83b866" stroke="#294d38" stroke-width="2"/><ellipse cx="86" cy="115" rx="9" ry="3.8" fill="#83b866" stroke="#294d38" stroke-width="2"/><path d="M64 35Q57 19 63 13" fill="none" stroke="#294d38" stroke-width="4"/><path d="M65 28Q74 7 95 15Q90 35 67 34Z" fill="url(#apple-leaf)" stroke="#294d38" stroke-width="2.7"/><path d="M68 30Q80 24 89 19" fill="none" stroke="#609248" stroke-width="1.7" stroke-linecap="round"/><path d="M64 43Q44 30 27 45Q11 61 23 88Q34 115 54 109Q64 105 74 109Q94 115 105 87Q117 60 101 46Q83 31 64 43Z" fill="url(#apple-fruit)" stroke="#294d38" stroke-width="3.2"/><path d="M30 66Q29 51 44 48" fill="none" stroke="#ffffdf" stroke-width="5" stroke-linecap="round" opacity=".58"/><g transform="translate(64 76) scale(1)"><g fill="#294d38"><ellipse cx="-10" cy="0" rx="3.5" ry="4.8"/><ellipse cx="10" cy="0" rx="3.5" ry="4.8"/></g><g fill="#ffffed"><circle cx="-11" cy="-1.8" r="1.3"/><circle cx="9" cy="-1.8" r="1.3"/></g><g fill="#f6a798" opacity=".7"><ellipse cx="-19" cy="9" rx="6.2" ry="3.5"/><ellipse cx="19" cy="9" rx="6.2" ry="3.5"/></g><path d="M-6 10Q0 19 6 10" fill="none" stroke="#294d38" stroke-width="2.8" stroke-linecap="round"/></g></g></svg>
