<svg xmlns="http://www.w3.org/2000/svg" width="128" height="128" viewBox="0 0 128 128" role="img"><title>香蕉精灵</title><defs><radialGradient id="banana-fruit" cx="31%" cy="24%" r="83%"><stop stop-color="#fff6ce"/><stop offset=".5" stop-color="#f6dc8d"/><stop offset="1" stop-color="#dcad5b"/></radialGradient><linearGradient id="banana-leaf" x2=".8" y2="1"><stop stop-color="#b6e987"/><stop offset="1" stop-color="#518d4e"/></linearGradient></defs><ellipse cx="64" cy="119" rx="29" ry="4.5" fill="#173b2c" opacity=".16"/><g stroke-linecap="round" stroke-linejoin="round"><path d="M70 99L60 115M92 101L98 115" fill="none" stroke="#294d38" stroke-width="5"/><ellipse cx="57" cy="115" rx="9" ry="3.8" fill="#83b866" stroke="#294d38" stroke-width="2"/><ellipse cx="101" cy="115" rx="9" ry="3.8" fill="#83b866" stroke="#294d38" stroke-width="2"/><path d="M45 35L40 19L51 16L58 34" fill="#8bae64" stroke="#294d38" stroke-width="3"/><path d="M44 32Q36 70 58 95Q80 118 106 99L112 91L104 82Q73 88 64 62Q60 49 59 33Z" fill="url(#banana-fruit)" stroke="#294d38" stroke-width="3.2"/><path d="M52 36Q45 70 66 90Q82 104 101 92" fill="none" stroke="#d7ad56" stroke-width="2.5"/><path d="M105 84L114 89L111 98L103 99" fill="#98724a" stroke="#294d38" stroke-width="2.5"/><path d="M48 40Q44 53 48 63" fill="none" stroke="#ffffdf" stroke-width="5" stroke-linecap="round" opacity=".58"/><g transform="translate(69 80) scale(0.72)"><g fill="#294d38"><ellipse cx="-10" cy="0" rx="3.5" ry="4.8"/><ellipse cx="10" cy="0" rx="3.5" ry="4.8"/></g><g fill="#ffffed"><circle cx="-11" cy="-1.8" r="1.3"/><circle cx="9" cy="-1.8" r="1.3"/></g><g fill="#f6a798" opacity=".7"><ellipse cx="-19" cy="9" rx="6.2" ry="3.5"/><ellipse cx="19" cy="9" rx="6.2" ry="3.5"/></g><path d="M-6 10Q0 19 6 10" fill="none" stroke="#294d38" stroke-width="2.8" stroke-linecap="round"/></g></g></svg>
