<svg xmlns="http://www.w3.org/2000/svg" width="128" height="128" viewBox="0 0 128 128" role="img"><title>胡萝卜精灵</title><defs><radialGradient id="carrot-fruit" cx="31%" cy="24%" r="83%"><stop stop-color="#ffebad"/><stop offset=".5" stop-color="#f2b471"/><stop offset="1" stop-color="#d5814b"/></radialGradient><linearGradient id="carrot-leaf" x2=".8" y2="1"><stop stop-color="#b6e987"/><stop offset="1" stop-color="#518d4e"/></linearGradient></defs><ellipse cx="64" cy="119" rx="29" ry="4.5" fill="#173b2c" opacity=".16"/><g stroke-linecap="round" stroke-linejoin="round"><path d="M55 103L46 115M65 101L78 115" fill="none" stroke="#294d38" stroke-width="5"/><ellipse cx="43" cy="115" rx="9" ry="3.8" fill="#83b866" stroke="#294d38" stroke-width="2"/><ellipse cx="81" cy="115" rx="9" ry="3.8" fill="#83b866" stroke="#294d38" stroke-width="2"/><path d="M53 41Q28 28 38 12Q54 17 60 40M61 39Q48 7 64 5Q75 11 70 41M70 40Q81 11 95 19Q101 32 76 47" fill="url(#carrot-leaf)" stroke="#294d38" stroke-width="2.8"/><path d="M40 49Q55 34 80 43Q95 53 82 83L61 111Q57 117 53 108L36 76Q31 59 40 49Z" fill="url(#carrot-fruit)" stroke="#294d38" stroke-width="3.2"/><path d="M43 53Q40 62 44 70" fill="none" stroke="#ffffdf" stroke-width="5" stroke-linecap="round" opacity=".58"/><path d="M50 88L62 90M60 98L68 99M78 75L84 73" fill="none" stroke="#c47d44" stroke-width="2.5"/><g transform="translate(61 63) scale(0.77)"><g fill="#294d38"><ellipse cx="-10" cy="0" rx="3.5" ry="4.8"/><ellipse cx="10" cy="0" rx="3.5" ry="4.8"/></g><g fill="#ffffed"><circle cx="-11" cy="-1.8" r="1.3"/><circle cx="9" cy="-1.8" r="1.3"/></g><g fill="#f6a798" opacity=".7"><ellipse cx="-19" cy="9" rx="6.2" ry="3.5"/><ellipse cx="19" cy="9" rx="6.2" ry="3.5"/></g><path d="M-6 10Q0 19 6 10" fill="none" stroke="#294d38" stroke-width="2.8" stroke-linecap="round"/></g></g></svg>
