<svg xmlns="http://www.w3.org/2000/svg" width="128" height="128" viewBox="0 0 128 128" role="img"><title>甜玉米精灵</title><defs><radialGradient id="corn-fruit" cx="31%" cy="24%" r="83%"><stop stop-color="#fff5bf"/><stop offset=".5" stop-color="#f4d481"/><stop offset="1" stop-color="#d3a34f"/></radialGradient><linearGradient id="corn-leaf" x2=".8" y2="1"><stop stop-color="#b6e987"/><stop offset="1" stop-color="#518d4e"/></linearGradient></defs><ellipse cx="64" cy="119" rx="29" ry="4.5" fill="#173b2c" opacity=".16"/><g stroke-linecap="round" stroke-linejoin="round"><path d="M49 107L45 115M78 107L83 115" fill="none" stroke="#294d38" stroke-width="5" stroke-linecap="round"/><ellipse cx="42" cy="115" rx="9" ry="3.8" fill="#83b866" stroke="#294d38" stroke-width="2"/><ellipse cx="86" cy="115" rx="9" ry="3.8" fill="#83b866" stroke="#294d38" stroke-width="2"/><path d="M40 38Q41 22 63 21Q83 21 86 39L87 90Q86 110 64 113Q43 111 41 93Z" fill="url(#corn-fruit)" stroke="#294d38" stroke-width="3.2"/><rect x="43" y="32" width="9" height="9" rx="3.7" fill="#ffe69b" stroke="#d1a65b" stroke-width=".7"/><rect x="54" y="32" width="9" height="9" rx="3.7" fill="#ffe69b" stroke="#d1a65b" stroke-width=".7"/><rect x="65" y="32" width="9" height="9" rx="3.7" fill="#ffe69b" stroke="#d1a65b" stroke-width=".7"/><rect x="76" y="32" width="9" height="9" rx="3.7" fill="#ffe69b" stroke="#d1a65b" stroke-width=".7"/><rect x="43" y="43" width="9" height="9" rx="3.7" fill="#ffe69b" stroke="#d1a65b" stroke-width=".7"/><rect x="54" y="43" width="9" height="9" rx="3.7" fill="#ffe69b" stroke="#d1a65b" stroke-width=".7"/><rect x="65" y="43" width="9" height="9" rx="3.7" fill="#ffe69b" stroke="#d1a65b" stroke-width=".7"/><rect x="76" y="43" width="9" height="9" rx="3.7" fill="#ffe69b" stroke="#d1a65b" stroke-width=".7"/><rect x="43" y="54" width="9" height="9" rx="3.7" fill="#ffe69b" stroke="#d1a65b" stroke-width=".7"/><rect x="54" y="54" width="9" height="9" rx="3.7" fill="#ffe69b" stroke="#d1a65b" stroke-width=".7"/><rect x="65" y="54" width="9" height="9" rx="3.7" fill="#ffe69b" stroke="#d1a65b" stroke-width=".7"/><rect x="76" y="54" width="9" height="9" rx="3.7" fill="#ffe69b" stroke="#d1a65b" stroke-width=".7"/><rect x="43" y="91" width="9" height="9" rx="3.7" fill="#ffe69b" stroke="#d1a65b" stroke-width=".7"/><rect x="54" y="91" width="9" height="9" rx="3.7" fill="#ffe69b" stroke="#d1a65b" stroke-width=".7"/><rect x="65" y="91" width="9" height="9" rx="3.7" fill="#ffe69b" stroke="#d1a65b" stroke-width=".7"/><rect x="76" y="91" width="9" height="9" rx="3.7" fill="#ffe69b" stroke="#d1a65b" stroke-width=".7"/><rect x="54" y="102" width="9" height="9" rx="3.7" fill="#ffe69b" stroke="#d1a65b" stroke-width=".7"/><rect x="65" y="102" width="9" height="9" rx="3.7" fill="#ffe69b" stroke="#d1a65b" stroke-width=".7"/><path d="M48 104Q27 96 24 59Q45 66 48 86L58 109Z" fill="url(#corn-leaf)" stroke="#294d38" stroke-width="2.8"/><path d="M70 110Q101 99 106 55Q81 63 79 89Z" fill="url(#corn-leaf)" stroke="#294d38" stroke-width="2.8"/><path d="M28 67Q37 83 47 99M101 64Q93 89 82 101" fill="none" stroke="#70a75b" stroke-width="2"/><path d="M48 32Q51 27 58 27" fill="none" stroke="#ffffdf" stroke-width="5" stroke-linecap="round" opacity=".58"/><g transform="translate(64 71) scale(0.81)"><g fill="#294d38"><ellipse cx="-10" cy="0" rx="3.5" ry="4.8"/><ellipse cx="10" cy="0" rx="3.5" ry="4.8"/></g><g fill="#ffffed"><circle cx="-11" cy="-1.8" r="1.3"/><circle cx="9" cy="-1.8" r="1.3"/></g><g fill="#f6a798" opacity=".7"><ellipse cx="-19" cy="9" rx="6.2" ry="3.5"/><ellipse cx="19" cy="9" rx="6.2" ry="3.5"/></g><path d="M-6 10Q0 19 6 10" fill="none" stroke="#294d38" stroke-width="2.8" stroke-linecap="round"/></g></g></svg>
