<svg xmlns="http://www.w3.org/2000/svg" width="128" height="128" viewBox="0 0 128 128" role="img"><title>紫葡萄精灵</title><defs><radialGradient id="grape-fruit" cx="31%" cy="24%" r="83%"><stop stop-color="#e8d5ff"/><stop offset=".5" stop-color="#baa0dc"/><stop offset="1" stop-color="#866db7"/></radialGradient><linearGradient id="grape-leaf" x2=".8" y2="1"><stop stop-color="#b6e987"/><stop offset="1" stop-color="#518d4e"/></linearGradient></defs><ellipse cx="64" cy="119" rx="29" ry="4.5" fill="#173b2c" opacity=".16"/><g stroke-linecap="round" stroke-linejoin="round"><path d="M49 105L45 115M78 105L83 115" fill="none" stroke="#294d38" stroke-width="5" stroke-linecap="round"/><ellipse cx="42" cy="115" rx="9" ry="3.8" fill="#83b866" stroke="#294d38" stroke-width="2"/><ellipse cx="86" cy="115" rx="9" ry="3.8" fill="#83b866" stroke="#294d38" stroke-width="2"/><path d="M63 30Q55 15 65 9" fill="none" stroke="#294d38" stroke-width="4"/><path d="M66 21Q85 6 102 24L87 32L79 43L63 29Z" fill="url(#grape-leaf)" stroke="#294d38" stroke-width="2.7"/><circle cx="42" cy="44" r="16" fill="url(#grape-fruit)" stroke="#294d38" stroke-width="2.8"/><circle cx="65" cy="39" r="17" fill="url(#grape-fruit)" stroke="#294d38" stroke-width="2.8"/><circle cx="86" cy="46" r="17" fill="url(#grape-fruit)" stroke="#294d38" stroke-width="2.8"/><circle cx="32" cy="65" r="17" fill="url(#grape-fruit)" stroke="#294d38" stroke-width="2.8"/><circle cx="96" cy="66" r="17" fill="url(#grape-fruit)" stroke="#294d38" stroke-width="2.8"/><circle cx="42" cy="90" r="17" fill="url(#grape-fruit)" stroke="#294d38" stroke-width="2.8"/><circle cx="85" cy="92" r="17" fill="url(#grape-fruit)" stroke="#294d38" stroke-width="2.8"/><circle cx="64" cy="106" r="15" fill="url(#grape-fruit)" stroke="#294d38" stroke-width="2.8"/><circle cx="63" cy="74" r="27" fill="url(#grape-fruit)" stroke="#294d38" stroke-width="2.8"/><path d="M34 40Q34 34 42 32M50 58Q57 51 64 51" fill="none" stroke="#ffffdf" stroke-width="5" stroke-linecap="round" opacity=".58"/><g transform="translate(64 75) scale(0.9)"><g fill="#294d38"><ellipse cx="-10" cy="0" rx="3.5" ry="4.8"/><ellipse cx="10" cy="0" rx="3.5" ry="4.8"/></g><g fill="#ffffed"><circle cx="-11" cy="-1.8" r="1.3"/><circle cx="9" cy="-1.8" r="1.3"/></g><g fill="#f6a798" opacity=".7"><ellipse cx="-19" cy="9" rx="6.2" ry="3.5"/><ellipse cx="19" cy="9" rx="6.2" ry="3.5"/></g><path d="M-6 10Q0 19 6 10" fill="none" stroke="#294d38" stroke-width="2.8" stroke-linecap="round"/></g></g></svg>
